# xmcd
#
# Track frame offsets:
#	150
#	14010
#	31905
#	51455
#	70324
#	82629
#	95480
#	107437
#	124495
#	142889
#	157234
#	176447
#	189103
#	204785
#	236278
#
# Disc length: 3370 seconds
#
# Revision: 1
# Processed by: cddbd v1.5.2PL0 Copyright (c) Steve Scherf et al.
# Submitted via: audiograbber 1.83.01
#
DISCID=bd0d280f
DTITLE=Billy Joe Shaver - Everybody's Brother
DYEAR=2007
DGENRE=Country
TTITLE0=Rolling Stone
TTITLE1=Get Thee Behind Me Satan (w John Anderson)
TTITLE2=When I Get My Wings
TTITLE3=Most Precious
TTITLE4=Winning Again (w Marty Stuart)
TTITLE5=No Earthly Good (w Kris Kristofferson)
TTITLE6=If You Don't Love Jesus
TTITLE7=To Be Loved By A Woman
TTITLE8=The Tough Get Going
TTITLE9=The Greatest Man Alive
TTITLE10=Played The Game Too Long (w Tanya Tucker)
TTITLE11=You'll Always Be My Best Friend
TTITLE12=Jesus Is The Only One That Loves Us (w John Anderson)
TTITLE13=Everybody's Brother (w Bill Miller)
TTITLE14=You Just Can't Beat Jesus Christ (w Johnny Cash)
EXTD=YEAR: 2007
EXTT0=
EXTT1=
EXTT2=
EXTT3=
EXTT4=
EXTT5=
EXTT6=
EXTT7=
EXTT8=
EXTT9=
EXTT10=
EXTT11=
EXTT12=
EXTT13=
EXTT14=
PLAYORDER=
